<svg width="40" height="40" viewBox="0 0 40 40" fill="none" xmlns="http://www.w3.org/2000/svg">
<circle cx="20" cy="20" r="20" fill="#E0E0E0"/>
<path d="M14 11V10.25H13.5986L13.376 10.584L14 11ZM26 11L26.624 10.584L26.4014 10.25H26V11ZM30 17L30.5762 17.4801L30.9347 17.0499L30.624 16.584L30 17ZM20 29L19.4238 29.4801L20 30.1715L20.5762 29.4801L20 29ZM10 17L9.37596 16.584L9.06533 17.0499L9.42383 17.4801L10 17ZM18 11L18.7449 10.9124C18.7061 10.5831 18.4558 10.3184 18.1293 10.2612C17.8028 10.2041 17.4774 10.3681 17.3292 10.6646L18 11ZM15 17L14.3292 16.6646L14.1692 16.9846L14.3172 17.3104L15 17ZM20 28L19.3172 28.3104L20 29.8125L20.6828 28.3104L20 28ZM25 17L25.6828 17.3104L25.8553 16.9308L25.624 16.584L25 17ZM14 11.75H26V10.25H14V11.75ZM25.376 11.416L29.376 17.416L30.624 16.584L26.624 10.584L25.376 11.416ZM29.4238 16.5199L19.4238 28.5199L20.5762 29.4801L30.5762 17.4801L29.4238 16.5199ZM20.5762 28.5199L10.5762 16.5199L9.42383 17.4801L19.4238 29.4801L20.5762 28.5199ZM10.624 17.416L14.624 11.416L13.376 10.584L9.37596 16.584L10.624 17.416ZM10 17.75H30V16.25H10V17.75ZM17.3292 10.6646L14.3292 16.6646L15.6708 17.3354L18.6708 11.3354L17.3292 10.6646ZM14.3172 17.3104L19.3172 28.3104L20.6828 27.6896L15.6828 16.6896L14.3172 17.3104ZM20.7449 27.9124L18.7449 10.9124L17.2551 11.0876L19.2551 28.0876L20.7449 27.9124ZM20.376 11.416L24.376 17.416L25.624 16.584L21.624 10.584L20.376 11.416ZM24.3172 16.6896L19.3172 27.6896L20.6828 28.3104L25.6828 17.3104L24.3172 16.6896Z" fill="black"/>
</svg>
